# xmcd
#
# Track frame offsets:
#	183
#	10588
#	23483
#	35188
#	47190
#	58285
#	74420
#	91818
#	105093
#	117088
#	128043
#	141250
#	154598
#	165398
#	176113
#	185643
#
# Disc length: 2614 seconds
#
# Revision: 1
# Processed by: cddbd v1.4PL0 Copyright (c) Steve Scherf et al.
# Submitted via: audiograbber 1.80
#
DISCID=d00a3410
DTITLE=Crystal Gayle - Country Classics
DYEAR=1900
DGENRE=
TTITLE0=Wrong Road Again
TTITLE1=When I Dream
TTITLE2=A Woman's Heart (Is A Handy Place To Be)
TTITLE3=Beyond You
TTITLE4=Somebody Loves You
TTITLE5=I'll Get Over You
TTITLE6=You Never Miss A Real Good Thing (Till He Says Goodbye)
TTITLE7=I'll Do It All Over Again)
TTITLE8=Don't It Make My Brown Eyes Blue
TTITLE9=Ready For The Times To Get Better
TTITLE10=Talking In Your Sleep
TTITLE11=Why Have You Left The One You Left Me For
TTITLE12=Restless
TTITLE13=Lay Back Lover
TTITLE14=Your Kisses Will
TTITLE15=Your Old Cold Shoulder
EXTD=
EXTT0=
EXTT1=
EXTT2=
EXTT3=
EXTT4=
EXTT5=
EXTT6=
EXTT7=
EXTT8=
EXTT9=
EXTT10=
EXTT11=
EXTT12=
EXTT13=
EXTT14=
EXTT15=
PLAYORDER=
